<?xml version="1.0" standalone="no"?>
<!DOCTYPE svg PUBLIC "-//W3C//DTD SVG 20010904//EN"
 "http://www.w3.org/TR/2001/REC-SVG-20010904/DTD/svg10.dtd">
<svg version="1.0" xmlns="http://www.w3.org/2000/svg"
 width="30.000000pt" height="30.000000pt" viewBox="0 0 30.000000 30.000000"
 preserveAspectRatio="xMidYMid meet">

<g transform="translate(0.000000,30.000000) scale(0.100000,-0.100000)"
fill="currentcolor" stroke="none">
<path d="M0 281 c0 -5 10 -11 22 -13 20 -3 24 -12 33 -78 6 -41 14 -81 18 -87
11 -18 181 -18 195 0 9 11 32 103 32 127 0 6 -47 10 -110 10 -109 0 -111 0
-120 25 -7 19 -17 25 -40 25 -16 0 -30 -4 -30 -9z"/>
<path d="M85 64 c-18 -18 -16 -33 7 -47 35 -22 66 21 36 51 -16 16 -23 15 -43
-4z"/>
<path d="M206 64 c-10 -9 -15 -23 -12 -31 3 -8 6 -17 6 -19 0 -2 11 -4 25 -4
29 0 43 25 28 48 -14 23 -29 25 -47 6z"/>
</g>
</svg>
