<?xml version="1.0" standalone="no"?>
<!DOCTYPE svg PUBLIC "-//W3C//DTD SVG 20010904//EN"
 "http://www.w3.org/TR/2001/REC-SVG-20010904/DTD/svg10.dtd">
<svg version="1.0" xmlns="http://www.w3.org/2000/svg"
 width="25.000000pt" height="25.000000pt" viewBox="0 0 25.000000 25.000000"
 preserveAspectRatio="xMidYMid meet">

<g transform="translate(0.000000,25.000000) scale(0.100000,-0.100000)"
fill="currentcolor" stroke="none">
<path d="M3 234 c-4 -10 10 -32 41 -63 l46 -47 -45 -44 c-47 -47 -55 -67 -29
-77 10 -4 32 10 63 41 l47 46 44 -45 c47 -48 67 -55 77 -29 4 11 -10 31 -40
62 l-47 47 45 45 c32 32 44 52 39 63 -10 27 -27 20 -74 -28 l-44 -45 -46 45
c-48 48 -67 55 -77 29z"/>
</g>
</svg>
