<?xml version="1.0" standalone="no"?>
<!DOCTYPE svg PUBLIC "-//W3C//DTD SVG 20010904//EN"
 "http://www.w3.org/TR/2001/REC-SVG-20010904/DTD/svg10.dtd">
<svg version="1.0" xmlns="http://www.w3.org/2000/svg"
 width="30.000000pt" height="30.000000pt" viewBox="0 0 30.000000 30.000000"
 preserveAspectRatio="xMidYMid meet">

<g transform="translate(0.000000,30.000000) scale(0.100000,-0.100000)"
fill="currentcolor" stroke="none">
<path d="M20 253 c0 -14 115 -123 129 -123 16 0 131 108 131 122 0 4 -58 8
-130 8 -72 0 -130 -3 -130 -7z"/>
<path d="M0 150 l0 -95 47 48 48 47 -48 47 -47 48 0 -95z"/>
<path d="M250 195 l-44 -45 47 -48 47 -47 0 93 c0 50 -1 92 -3 92 -2 0 -23
-20 -47 -45z"/>
<path d="M57 92 c-20 -21 -37 -41 -37 -45 0 -4 58 -7 130 -7 72 0 130 4 130 8
0 4 -18 25 -40 47 -37 36 -41 38 -65 25 -21 -11 -30 -12 -45 -2 -28 17 -32 16
-73 -26z"/>
</g>
</svg>
