<?xml version="1.0" standalone="no"?>
<!DOCTYPE svg PUBLIC "-//W3C//DTD SVG 20010904//EN"
 "http://www.w3.org/TR/2001/REC-SVG-20010904/DTD/svg10.dtd">
<svg version="1.0" xmlns="http://www.w3.org/2000/svg"
 width="30.000000pt" height="30.000000pt" viewBox="0 0 30.000000 30.000000"
 preserveAspectRatio="xMidYMid meet">

<g transform="translate(0.000000,30.000000) scale(0.100000,-0.100000)"
fill="currentcolor" stroke="none">
<path d="M78 279 c-50 -26 -82 -87 -75 -145 16 -144 203 -183 274 -58 43 74
20 159 -53 201 -48 28 -97 28 -146 2z m162 -77 c0 -4 -24 -32 -54 -61 -58 -57
-68 -58 -110 -13 -28 32 -10 46 25 20 l30 -22 42 42 c38 39 67 53 67 34z"/>
</g>
</svg>
