<?xml version="1.0" standalone="no"?>
<!DOCTYPE svg PUBLIC "-//W3C//DTD SVG 20010904//EN"
 "http://www.w3.org/TR/2001/REC-SVG-20010904/DTD/svg10.dtd">
<svg version="1.0" xmlns="http://www.w3.org/2000/svg"
 width="35.000000pt" height="35.000000pt" viewBox="0 0 35.000000 35.000000"
 preserveAspectRatio="xMidYMid meet">

<g transform="translate(0.000000,35.000000) scale(0.100000,-0.100000)"
fill="currentcolor" stroke="none">
<path d="M176 171 c-75 -75 -133 -140 -130 -144 4 -4 20 5 36 20 24 23 35 26
82 24 30 -1 65 3 78 9 29 15 98 81 98 94 0 5 -12 24 -26 43 l-26 34 22 24 c12
12 17 25 13 28 -5 3 -71 -56 -147 -132z m60 -16 c-7 -29 -38 -48 -69 -42 -20
3 -19 5 10 16 21 8 36 23 43 44 13 35 26 21 16 -18z"/>
<path d="M95 261 c-17 -10 -43 -33 -58 -50 -30 -36 -27 -49 15 -89 l25 -22 19
21 c11 12 17 32 16 49 -4 38 30 72 67 68 30 -3 65 18 55 33 -10 17 -108 10
-139 -10z"/>
<path d="M146 204 c-9 -8 -16 -23 -16 -32 0 -12 8 -8 30 13 17 16 30 30 30 32
0 9 -31 1 -44 -13z"/>
</g>
</svg>
